<svg width="328" height="298" viewBox="0 0 328 298" fill="none" xmlns="http://www.w3.org/2000/svg">
<g clip-path="url(#clip0_91_418)">
<path opacity="0.64" d="M36.387 111.48C24.3672 111.084 12.3474 112.713 0.888794 116.102C0.093704 116.366 -0.233704 117.114 0.280761 117.774C11.7861 133.002 27.2669 145.457 44.8056 154.171C62.3443 162.886 81.9876 167.991 101.818 168.563C114.118 168.915 126.232 167.199 138.252 165.174C139.655 165.746 141.198 165.966 142.882 166.274C146.202 166.847 149.57 167.463 152.891 168.035C154.294 168.255 154.434 166.23 153.031 165.966C150.178 165.482 147.325 164.954 144.425 164.47C142.975 164.206 141.479 164.03 140.029 163.678C139.889 163.238 139.468 162.842 138.813 162.974C138.673 162.974 138.532 163.018 138.392 163.062C137.41 162.489 136.615 161.653 135.773 160.773C132.172 157.076 128.336 153.555 124.361 150.166C116.223 143.301 107.337 137.183 97.9828 131.858C88.9095 126.708 79.3217 122.263 69.4533 118.566C58.743 114.605 47.8924 111.789 36.3402 111.436L36.387 111.48Z" fill="#030D55"/>
<path d="M138.298 163.414C97.0942 153.907 56.7786 141.188 17.8194 125.344C17.2114 125.08 16.884 126.004 17.492 126.268C56.4513 142.112 96.7668 154.832 137.971 164.338C138.626 164.47 138.953 163.546 138.298 163.414Z" fill="#D9D9D9"/>
<path d="M104.952 155.052C96.5331 149.462 88.6758 143.169 81.4732 136.215C81.0055 135.775 80.2104 136.391 80.6781 136.831C87.9742 143.829 95.8783 150.166 104.39 155.844C104.952 156.196 105.513 155.404 104.998 155.052L104.952 155.052Z" fill="#D9D9D9"/>
<path d="M52.0549 138.195C47.7053 133.75 43.309 129.305 38.9594 124.816C38.4917 124.376 37.6966 124.992 38.1643 125.432C42.5139 129.877 46.9102 134.322 51.2598 138.812C51.7275 139.296 52.5226 138.635 52.0549 138.195Z" fill="#D9D9D9"/>
<path d="M72.7737 145.061C68.5644 139.956 64.1213 134.983 59.5379 130.141C59.0702 129.657 58.3218 130.317 58.7428 130.757C63.3262 135.599 67.7693 140.572 71.9786 145.677C72.3996 146.161 73.1946 145.545 72.7737 145.061Z" fill="#D9D9D9"/>
<path d="M124.875 160.905C121.18 157.78 117.486 154.7 113.744 151.575C113.23 151.179 112.668 151.971 113.136 152.367C116.831 155.448 120.526 158.573 124.267 161.697C124.782 162.093 125.343 161.301 124.875 160.905Z" fill="#D9D9D9"/>
<path d="M86.2437 150.167C81.2393 152.455 76.422 155.096 71.8386 158.045C71.2774 158.397 71.9789 159.145 72.4934 158.793C77.0301 155.888 81.7538 153.335 86.6646 151.047C87.2726 150.783 86.8049 149.902 86.1969 150.167L86.2437 150.167Z" fill="#D9D9D9"/>
<path d="M59.8188 141.144C55.516 143.389 51.2599 145.589 46.9571 147.834C46.3959 148.142 46.8168 149.022 47.4248 148.714C51.7276 146.469 55.9837 144.269 60.2865 142.024C60.8477 141.716 60.4268 140.836 59.8188 141.144Z" fill="#D9D9D9"/>
<path d="M33.8617 131.726C30.4943 133.002 27.1269 134.278 23.7595 135.555C23.1515 135.775 23.5724 136.655 24.2272 136.435C27.5946 135.159 30.962 133.882 34.3294 132.606C34.9375 132.386 34.5165 131.506 33.8617 131.726Z" fill="#D9D9D9"/>
<path d="M114.025 158.353C112.575 156.9 110.143 158.881 108.787 159.585C105.466 161.301 102.145 162.974 98.8246 164.69C98.2166 164.998 98.6843 165.878 99.2923 165.57C101.537 164.426 103.829 163.282 106.074 162.093C106.963 161.653 112.481 158.176 113.276 159.013C113.744 159.453 114.539 158.837 114.072 158.397L114.025 158.353Z" fill="#D9D9D9"/>
<path opacity="0.64" d="M153.078 14.3917C148.447 8.80224 142.741 3.96101 136.381 0.132032C135.913 -0.132035 135.399 -1.61093e-06 135.258 0.528133C132.078 11.883 131.938 23.9421 134.557 35.429C137.176 46.916 142.461 57.8748 150.178 67.1171C154.948 72.8386 160.701 77.6358 166.594 82.301C166.875 83.1812 167.389 83.9734 167.904 84.8536C168.932 86.6141 170.008 88.3745 171.037 90.091C171.458 90.7951 172.581 90.091 172.16 89.3428C171.271 87.8464 170.382 86.35 169.447 84.8536C168.979 84.1054 168.465 83.3132 168.091 82.521C168.278 82.257 168.278 81.9489 167.95 81.6848C167.904 81.6408 167.81 81.5968 167.763 81.5088C167.67 80.8046 167.763 80.1444 167.857 79.3962C168.278 76.2714 168.558 73.1026 168.699 69.9338C168.932 63.4642 168.512 56.9505 167.436 50.5689C166.407 44.3633 164.817 38.2458 162.712 32.2602C160.42 25.7906 157.474 19.761 153.031 14.3477L153.078 14.3917Z" fill="#030D55"/>
<path d="M167.576 81.5967C155.79 59.063 146.062 35.649 138.485 11.5749C138.345 11.1788 137.737 11.3988 137.877 11.7949C145.454 35.8691 155.229 59.283 166.968 81.8168C167.155 82.1689 167.763 81.9488 167.576 81.5967Z" fill="#D9D9D9"/>
<path d="M158.409 63.0679C157.895 56.9943 157.941 50.8768 158.596 44.8032C158.596 44.4071 157.988 44.3191 157.941 44.7152C157.287 50.8328 157.24 56.9943 157.754 63.1119C157.754 63.508 158.456 63.464 158.409 63.0679Z" fill="#D9D9D9"/>
<path d="M145.735 32.2601C146.249 28.4751 146.764 24.6902 147.325 20.9492C147.372 20.5531 146.717 20.4651 146.67 20.8612C146.156 24.6462 145.641 28.4311 145.08 32.1721C145.033 32.5682 145.688 32.6562 145.735 32.2601Z" fill="#D9D9D9"/>
<path d="M150.552 44.4513C151.487 40.4463 152.236 36.4413 152.844 32.4363C152.89 32.0402 152.282 31.9522 152.189 32.3483C151.581 36.3973 150.786 40.4023 149.897 44.3633C149.804 44.7594 150.458 44.8474 150.552 44.4513Z" fill="#D9D9D9"/>
<path d="M163.46 74.4669L163.741 65.6647C163.741 65.2686 163.086 65.3126 163.086 65.7087L162.805 74.5109C162.805 74.907 163.46 74.863 163.46 74.4669Z" fill="#D9D9D9"/>
<path d="M153.358 52.5933C150.178 51.2729 146.857 50.1286 143.49 49.2484C143.069 49.1604 142.975 49.7325 143.396 49.8646C146.717 50.7448 149.944 51.8451 153.077 53.1654C153.452 53.3415 153.732 52.7693 153.358 52.5933Z" fill="#D9D9D9"/>
<path d="M147.325 36.9692C144.472 35.913 141.572 34.9007 138.719 33.8444C138.345 33.7124 138.064 34.2405 138.439 34.4166C141.291 35.4729 144.191 36.4851 147.044 37.5414C147.418 37.6734 147.699 37.1453 147.325 36.9692Z" fill="#D9D9D9"/>
<path d="M141.712 21.3895C139.701 20.3772 137.69 19.365 135.679 18.3527C135.305 18.1767 135.024 18.7048 135.399 18.9248C137.41 19.9371 139.421 20.9494 141.432 21.9616C141.806 22.1377 142.087 21.6095 141.712 21.3895Z" fill="#D9D9D9"/>
<path d="M160.374 68.5253C160.561 67.293 158.55 66.9849 157.661 66.6328C155.463 65.7966 153.218 65.0044 151.02 64.1682C150.645 64.0361 150.365 64.5643 150.739 64.7403L155.229 66.4127C155.837 66.6328 159.812 67.7331 159.719 68.4373C159.672 68.8334 160.327 68.9214 160.374 68.5253Z" fill="#D9D9D9"/>
<path d="M220.239 72.8386C216.778 72.2665 213.644 73.4548 211.025 76.3155C202.513 85.6019 201.718 109.456 201.812 119.27C201.905 132.254 203.449 145.017 205.881 154.832C204.477 151.883 203.028 148.934 201.671 145.897C200.783 143.873 199.847 141.804 198.959 139.692C198.959 139.692 198.959 139.604 198.959 139.56C198.959 139.56 198.959 139.472 198.912 139.472C196.948 134.674 195.077 129.657 193.814 124.464L193.72 123.804C193.019 118.478 192.364 113.461 193.112 104.307C193.627 98.1011 196.152 89.7829 198.397 82.4331C201.437 72.3545 203.869 64.3445 201.858 61.4397C201.391 60.7796 200.783 60.4275 199.941 60.2954C197.415 59.8993 195.17 60.6035 193.3 62.364C184.179 71.1662 186.237 106.331 192.037 124.86C192.645 127.369 193.44 129.833 194.235 132.254C179.83 113.065 144.378 84.3256 127.682 84.8097C124.127 84.8977 121.555 86.2621 120.011 88.8587C119.544 89.6509 119.45 90.4871 119.777 91.3674C121.461 96.0766 134.416 101.446 149.476 107.607C158.83 111.48 168.512 115.441 174.872 119.182C181.654 123.187 187.173 128.645 192.504 133.97C194.516 135.951 195.685 137.623 197.228 140.132C198.117 142.288 199.052 144.445 199.988 146.513C205.226 158.132 210.978 169.179 217.152 179.654C196.152 156.9 160.748 130.317 142.788 130.801C138.439 130.933 135.258 132.606 133.387 135.775C132.826 136.699 132.733 137.711 133.107 138.767C135.165 144.621 152.236 151.619 170.289 159.057C182.028 163.898 194.188 168.915 202.186 173.58C210.745 178.598 217.667 185.507 224.355 192.153C225.43 193.209 226.319 194.222 227.114 195.278C228.096 196.73 229.078 198.183 230.107 199.591C230.201 199.767 230.341 199.943 230.435 200.163C230.481 200.251 230.575 200.339 230.669 200.383C234.13 205.224 237.684 209.934 241.332 214.467C218.041 196.906 182.168 182.735 151.721 180.578C144.565 180.05 139.561 181.854 137.971 185.463C136.942 187.84 137.69 190.745 139.935 192.813C141.853 194.618 144.519 195.586 147.091 196.422C158.643 200.031 171.271 201.131 183.478 202.232C197.743 203.464 212.522 204.784 225.29 210.154C234.597 214.071 242.595 220.012 250.312 225.778C251.294 226.482 252.089 227.186 252.884 227.89C254.381 229.519 255.924 231.147 257.468 232.687C257.514 232.731 257.561 232.819 257.608 232.863C257.608 232.863 257.701 232.907 257.701 232.951C260.461 235.768 263.267 238.541 266.12 241.182C269.441 244.262 272.855 247.255 276.363 250.116C264.81 243.866 250.031 237.221 235.065 231.807C222.858 227.406 193.346 217.68 182.449 222.433C179.783 223.577 178.38 225.558 178.38 228.198C178.38 234.36 197.976 236.912 220.613 239.861C232.82 241.446 245.495 243.074 254.474 245.319C264.109 247.739 273.323 252.008 282.209 256.189C285.342 257.642 287.494 259.006 290.347 260.943C290.674 261.163 290.955 261.339 291.282 261.603C316.351 279.207 344.366 291.618 373.737 297.912C374.111 298 374.486 297.868 374.719 297.604C374.766 297.516 374.86 297.428 374.86 297.34C375 296.9 374.719 296.46 374.252 296.372C344.88 290.078 316.865 277.623 291.797 259.886C291.75 259.886 291.656 259.798 291.61 259.754C290.861 259.182 290.066 258.61 289.224 257.994C286.184 255.793 283.191 253.505 280.244 251.128C278.608 247.079 277.625 244.218 276.971 240.169C275.24 229.387 273.51 218.252 274.632 207.161C275.708 196.818 279.403 182.779 283.004 169.179C289.598 144.005 295.351 122.263 286.605 120.459C282.536 119.623 278.888 120.767 275.848 123.892C264.67 135.467 264.764 169.355 265.325 183.439C266.354 208.965 270.937 234.008 277.111 248.531C273.837 245.803 270.563 242.986 267.43 240.037C266.167 238.849 264.904 237.661 263.688 236.472C263.688 236.34 263.594 236.252 263.501 236.164C260.788 233.348 259.058 231.323 257.234 228.286C252.51 220.364 247.599 212.178 245.167 203.332C241.8 191.141 243.25 178.157 244.606 165.614C245.775 154.876 246.991 143.741 245.261 133.002C244.887 130.625 244.325 128.117 242.782 126.048C241.005 123.672 238.011 122.351 235.252 122.747C231.043 123.319 228.143 127.236 227.348 133.53C223.84 160.597 232.539 195.278 247.459 219.22C241.94 212.75 236.655 205.973 231.604 198.799C231.604 198.711 231.51 198.667 231.464 198.579C229.873 195.542 227.535 192.153 224.682 188.5C220.145 181.458 215.843 174.152 211.774 166.539C211.774 166.45 211.774 166.362 211.774 166.318C211.68 166.054 211.586 165.834 211.493 165.57C210.464 163.018 209.856 161.081 209.529 158.396C208.546 150.783 207.471 142.949 208.687 135.07C209.809 127.721 213.083 117.642 216.217 107.872C221.268 92.2476 225.617 78.7361 222.624 74.291C222.063 73.4548 221.221 72.9707 220.192 72.7946L220.239 72.8386Z" fill="#D9D9D9"/>
</g>
<defs>
<clipPath id="clip0_91_418">
<rect width="298" height="375" fill="white" transform="translate(375) rotate(90)"/>
</clipPath>
</defs>
</svg>
